<svg xmlns="http://www.w3.org/2000/svg" xmlns:xlink="http://www.w3.org/1999/xlink" width="154.5" height="36"><defs><linearGradient id="a"><stop offset="0" style="stop-color:#ccc;stop-opacity:1"/><stop offset="1" style="stop-color:#ccc;stop-opacity:0"/></linearGradient><linearGradient xlink:href="#a" id="b" x1="339" x2="339" y1="471.362" y2="432.555" gradientTransform="matrix(.98519 0 0 1 181.691 97.357)" gradientUnits="userSpaceOnUse"/></defs><path d="M454.036 537.72c-9.113 0-16.5 7.834-16.5 17.5 0 9.664 7.387 17.5 16.5 17.5 5.18 0 9.787-2.54 12.812-6.5h120.594c1.996 0 3.594-1.416 3.594-3.157v-16.687c0-1.742-1.598-3.157-3.594-3.157H466.004c-3.008-3.376-7.242-5.5-11.968-5.5z" style="fill:url(#b);fill-opacity:1;stroke:#b3b3b3;stroke-width:1" transform="translate(-437.031 -537.219)"/><text xml:space="preserve" x="474.218" y="558.71" style="font-size:11.11530685px;font-style:normal;font-weight:400;fill:#4d4d4d;fill-opacity:1;stroke:#fff;font-family:Bitstream Vera Sans" transform="translate(-437.031 -537.219)"><tspan x="474.218" y="558.71" style="font-size:12px;font-weight:700;fill:#4d4d4d;stroke:#fff;font-family:Droid Sans;-inkscape-font-specification:Droid Sans Bold">Back to the thread</tspan></text><text xml:space="preserve" x="474.218" y="558.71" style="font-size:11.11530685px;font-style:normal;font-weight:400;fill:#4d4d4d;fill-opacity:1;stroke:none;font-family:Bitstream Vera Sans" transform="translate(-437.031 -537.219)"><tspan x="474.218" y="558.71" style="font-size:12px;font-weight:700;fill:#4d4d4d;font-family:Droid Sans;-inkscape-font-specification:Droid Sans Bold">Back to the thread</tspan></text><g style="fill:#fff"><g style="fill:#fff;display:inline"><g style="fill:#fff"><path d="M110.997 520h-1.031a1.04 1.04 0 0 0-.688.313l-5.281 5.218 5.281 5.188c.188.188.454.281.719.281h1v-1c0-.265-.093-.53-.281-.719l-3.813-3.75 3.813-3.781a.909.909 0 0 0 .281-.75v-1z" style="font-size:medium;font-style:normal;font-variant:normal;font-weight:400;font-stretch:normal;text-indent:0;text-align:start;text-decoration:none;line-height:normal;letter-spacing:normal;word-spacing:normal;text-transform:none;direction:ltr;block-progression:tb;writing-mode:lr-tb;text-anchor:start;color:#bebebe;fill:#fff;fill-opacity:1;fill-rule:nonzero;stroke:none;stroke-width:1.78124988;marker:none;visibility:visible;display:inline;overflow:visible;enable-background:new;font-family:Andale Mono;-inkscape-font-specification:Andale Mono" transform="rotate(90 490.298 339.095) scale(1.54544)"/></g></g></g><g style="fill:#60605b"><g style="fill:#60605b;display:inline"><g style="fill:#60605b"><path d="M110.997 520h-1.031a1.04 1.04 0 0 0-.688.313l-5.281 5.218 5.281 5.188c.188.188.454.281.719.281h1v-1c0-.265-.093-.53-.281-.719l-3.813-3.75 3.813-3.781a.909.909 0 0 0 .281-.75v-1z" style="font-size:medium;font-style:normal;font-variant:normal;font-weight:400;font-stretch:normal;text-indent:0;text-align:start;text-decoration:none;line-height:normal;letter-spacing:normal;word-spacing:normal;text-transform:none;direction:ltr;block-progression:tb;writing-mode:lr-tb;text-anchor:start;color:#bebebe;fill:#60605b;fill-opacity:1;fill-rule:nonzero;stroke:none;stroke-width:1.78124988;marker:none;visibility:visible;display:inline;overflow:visible;enable-background:new;font-family:Andale Mono;-inkscape-font-specification:Andale Mono" transform="rotate(90 489.798 339.595) scale(1.54544)"/></g></g></g></svg>