<svg xmlns="http://www.w3.org/2000/svg" xmlns:xlink="http://www.w3.org/1999/xlink" xml:space="preserve" width="625" height="625"><path fill="#FFF" d="M113.472 282.654c-1.255 11.733 11.474 146.164 11.474 146.164s25.009 132.037 28.449 140.357c23.452-1.057 136.293-2.305 146.471-2.039s127.676 7.987 143.333 10.287c3.105-6.049 40.182-119.361 40.182-119.361s25.525-120.153 26.512-141.696c-33.918-5.246-194.539-27.34-194.539-27.34l-201.882-6.372z"/><g transform="translate(63.608 17.322) scale(.79164)"><defs><path id="a" d="M61.693 389.685c-.026 178.418 50.816 304.02 50.816 304.02-16.293-113.95-49.585-351.767-49.585-351.767a929.31 929.31 0 0 0-1.231 47.747"/></defs><clipPath id="b"><use xlink:href="#a" overflow="visible"/></clipPath><g clip-path="url(#b)"><linearGradient id="c" x1="272.805" x2="273.805" y1="730.259" y2="730.259" gradientTransform="rotate(-108.114 -35210.051 128766.215) scale(276.871)" gradientUnits="userSpaceOnUse"><stop offset="0" style="stop-color:#47488b"/><stop offset=".489" style="stop-color:#6191c4"/><stop offset="1" style="stop-color:#3e3a5f"/></linearGradient><path fill="url(#c)" d="M61.693 389.685c-.026 178.418 50.816 304.02 50.816 304.02-16.293-113.95-49.585-351.767-49.585-351.767a929.31 929.31 0 0 0-1.231 47.747"/></g></g><g transform="translate(63.608 17.322) scale(.79164)"><defs><path id="d" d="M306.563 564.306C196.984 415.903 68.42 343.07 68.42 343.07c77.305 71.551 238.143 221.236 238.143 221.236"/></defs><clipPath id="e"><use xlink:href="#d" overflow="visible"/></clipPath><g clip-path="url(#e)"><linearGradient id="f" x1="275.674" x2="276.674" y1="732.714" y2="732.714" gradientTransform="matrix(210.5426 142.6992 -151.3516 223.2964 52910.96 -202587.875)" gradientUnits="userSpaceOnUse"><stop offset="0" style="stop-color:#47488b"/><stop offset=".489" style="stop-color:#6191c4"/><stop offset="1" style="stop-color:#3e3a5f"/></linearGradient><path fill="url(#f)" d="M306.563 564.306C196.984 415.903 68.42 343.07 68.42 343.07c77.305 71.551 238.143 221.236 238.143 221.236"/></g></g><g transform="translate(63.608 17.322) scale(.79164)"><defs><path id="g" d="M115.101 694.131c47.827-47.554 147.793-146.547 147.793-146.547-93.008 72.145-147.793 146.547-147.793 146.547"/></defs><clipPath id="h"><use xlink:href="#g" overflow="visible"/></clipPath><g clip-path="url(#h)"><linearGradient id="i" x1="271.777" x2="272.777" y1="733.573" y2="733.573" gradientTransform="matrix(93.7223 -132.4789 88.9166 62.8886 -90568.68 -9424.12)" gradientUnits="userSpaceOnUse"><stop offset="0" style="stop-color:#47488b"/><stop offset=".489" style="stop-color:#6191c4"/><stop offset="1" style="stop-color:#3e3a5f"/></linearGradient><path fill="url(#i)" d="M115.101 694.131c47.827-47.554 147.793-146.547 147.793-146.547-93.008 72.145-147.793 146.547-147.793 146.547"/></g></g><g transform="translate(63.608 17.322) scale(.79164)"><defs><path id="j" d="M478.766 704.208c-63.479-95.082-135.455-156.126-135.455-156.126 43.969 50.542 135.455 156.126 135.455 156.126"/></defs><clipPath id="k"><use xlink:href="#j" overflow="visible"/></clipPath><g clip-path="url(#k)"><linearGradient id="l" x1="276.749" x2="277.749" y1="734.732" y2="734.732" gradientTransform="matrix(116.5234 114.0699 -76.56 78.2043 24341.113 -88474.016)" gradientUnits="userSpaceOnUse"><stop offset="0" style="stop-color:#47488b"/><stop offset=".489" style="stop-color:#6191c4"/><stop offset="1" style="stop-color:#3e3a5f"/></linearGradient><path fill="url(#l)" d="M478.766 704.208c-63.479-95.082-135.455-156.126-135.455-156.126 43.969 50.542 135.455 156.126 135.455 156.126"/></g></g><g transform="translate(63.608 17.322) scale(.79164)"><defs><path id="m" d="M306.563 564.306s173.453-122.965 256.762-181.692c0 0-131.132 55.611-256.762 181.692"/></defs><clipPath id="n"><use xlink:href="#m" overflow="visible"/></clipPath><g clip-path="url(#n)"><linearGradient id="o" x1="275.712" x2="276.713" y1="732.867" y2="732.867" gradientTransform="matrix(-219.0311 111.9852 109.2051 220.0567 -19069.908 -191745.734)" gradientUnits="userSpaceOnUse"><stop offset="0" style="stop-color:#47488b"/><stop offset=".489" style="stop-color:#6191c4"/><stop offset="1" style="stop-color:#3e3a5f"/></linearGradient><path fill="url(#o)" d="M306.563 564.306s173.453-122.965 256.762-181.692c0 0-131.132 55.611-256.762 181.692"/></g></g><g transform="translate(63.608 17.322) scale(.79164)"><defs><path id="p" d="M480.717 703.617s79.273-120.901 81.437-311.534c.003 0-54.781 210.678-81.437 311.534"/></defs><clipPath id="q"><use xlink:href="#p" overflow="visible"/></clipPath><g clip-path="url(#q)"><linearGradient id="r" x1="272.629" x2="273.629" y1="730.341" y2="730.341" gradientTransform="matrix(116.2792 -219.093 -298.406 -158.3748 186685.297 176085.172)" gradientUnits="userSpaceOnUse"><stop offset="0" style="stop-color:#47488b"/><stop offset=".489" style="stop-color:#6191c4"/><stop offset="1" style="stop-color:#3e3a5f"/></linearGradient><path fill="url(#r)" d="M480.717 703.617s79.273-120.901 81.437-311.534c.003 0-54.781 210.678-81.437 311.534"/></g></g><g transform="translate(63.608 17.322) scale(.79164)"><defs><path id="s" d="M113.141 697.331s251.217 7.258 371.564 11.072c0 0-82.366-24.008-209.646-24.012a1020.995 1020.995 0 0 0-161.918 12.94"/></defs><clipPath id="t"><use xlink:href="#s" overflow="visible"/></clipPath><g clip-path="url(#t)"><linearGradient id="u" x1="274.246" x2="275.246" y1="732.486" y2="732.486" gradientTransform="matrix(-276.2908 -74.7633 -92.3528 341.3748 143891.672 -228798.984)" gradientUnits="userSpaceOnUse"><stop offset="0" style="stop-color:#47488b"/><stop offset=".489" style="stop-color:#6191c4"/><stop offset="1" style="stop-color:#3e3a5f"/></linearGradient><path fill="url(#u)" d="M113.141 697.331s251.217 7.258 371.564 11.072c0 0-82.366-24.008-209.646-24.012a1020.995 1020.995 0 0 0-161.918 12.94"/></g></g><g transform="translate(63.608 17.322) scale(.79164)"><defs><path id="v" d="M53.565 335.175C221.8 349.154 572.711 379.09 572.711 379.09c-168.38-39.794-317.625-48.035-412.383-48.035-67-.001-106.763 4.12-106.763 4.12"/></defs><clipPath id="w"><use xlink:href="#v" overflow="visible"/></clipPath><g clip-path="url(#w)"><linearGradient id="x" x1="274.417" x2="275.417" y1="732.428" y2="732.428" gradientTransform="matrix(405.6025 -32.3449 29.4814 369.7366 -132840.36 -261551.484)" gradientUnits="userSpaceOnUse"><stop offset="0" style="stop-color:#47488b"/><stop offset=".489" style="stop-color:#6191c4"/><stop offset="1" style="stop-color:#3e3a5f"/></linearGradient><path fill="url(#x)" d="M53.565 335.175C221.8 349.154 572.711 379.09 572.711 379.09c-168.38-39.794-317.625-48.035-412.383-48.035-67-.001-106.763 4.12-106.763 4.12"/></g></g><path fill="#FFF" stroke="#000" stroke-linecap="round" stroke-miterlimit="10" stroke-width="3" d="M384.733 197.914s183.721-35.852 53.491 51.599c-51.145-34.1-53.491-51.599-53.491-51.599zm-.673 96.764s24.608-22.085 52.606-7.317c34.288 18.542 40.776 99.978 16.171 110.038-15.424 7.359-36.463-2.206-43.977-15.655-14.627-20.762.089-56.451-6.121-59.6-6.211-3.146-25.923.285-33.624-7.247-7.702-7.532 14.945-20.219 14.945-20.219z"/><path d="m421.616 394.622 1.5-15.759 1.5 15.759a1.508 1.508 0 0 1-3 .286 1.607 1.607 0 0 1 0-.286zm17.86 3.76-1.264-15.193 4.215 14.652a1.508 1.508 0 1 1-2.951.541zm16.527-4.988-5.707-14.53 8.381 13.171a1.506 1.506 0 1 1-2.674 1.359z"/><linearGradient id="y" x1="403.164" x2="457.987" y1="295.925" y2="390.51" gradientUnits="userSpaceOnUse"><stop offset="0" style="stop-color:#6171c4"/><stop offset=".471" style="stop-color:#4e5388"/><stop offset=".817" style="stop-color:#424163"/><stop offset="1" style="stop-color:#3e3a55"/></linearGradient><path fill="url(#y)" d="M470.426 351.421a123.007 123.007 0 0 0-2.271-14.643 111.583 111.583 0 0 0-4.053-14.215c-1.68-4.634-3.634-9.173-6.006-13.5-.029-.054-.061-.104-.091-.157-5.189-10.227-12.065-18.585-20.496-23.144-6.663-3.514-13.699-5.296-20.918-5.296-9.413 0-17.566 2.973-23.505 6.063.165.439.332.877.499 1.319.214.729.4 1.48.593 2.226 5.595-2.993 13.441-5.993 22.413-5.993 6.624 0 13.095 1.641 19.214 4.869 8.312 4.495 15.02 13.005 19.972 23.412 3.521 8.092 5.774 16.707 7.186 25.398a117.393 117.393 0 0 1 1.398 14.065c.219 4.696.167 9.396-.256 14.03-.424 4.63-1.192 9.208-2.449 13.538-1.286 4.287-3.102 8.428-5.751 11.396-1.312 1.49-2.846 2.587-4.455 3.278l-1.678.678-.839.342-.414.161-.349.085-1.39.355-.695.188-.782.11c-4.148.683-8.559.388-12.803-.75a37.304 37.304 0 0 1-12.011-5.54c-3.639-2.537-6.815-5.724-9.092-9.371l-.155-.248-.007-.01c-2.816-3.754-4.657-8.312-5.69-13.134-1.068-4.824-1.414-9.893-1.379-14.989.009-1.593.064-3.192.14-4.796.268-3.337.634-6.553.978-9.514 1.106-9.56 1.775-15.328-1.729-17.105-2.737-1.387-7.253-1.627-12.483-1.904-2.955-.158-6.202-.334-9.305-.757-.556.528-1.11 1.058-1.68 1.569-.575.526-1.165 1.035-1.753 1.545 4.022.796 8.42 1.032 12.546 1.252 4.619.244 8.983.477 11.041 1.519 1.256.638.327 8.668-.229 13.466-.361 3.117-.747 6.506-1.022 10.025a123.9 123.9 0 0 0-.424 4.545c-.382 5.273-.393 10.655.434 16.055.847 5.373 2.632 10.806 5.806 15.57l-.161-.255c2.545 4.733 6.242 8.617 10.394 11.75 4.167 3.129 8.861 5.547 13.913 7.01 5.042 1.435 10.467 2.018 15.854 1.139l1.009-.146 1.058-.267 2.11-.568.526-.147.428-.166.842-.335 1.681-.667c2.86-1.162 5.27-3.046 7.14-5.185 3.765-4.312 5.754-9.331 7.14-14.268 1.372-4.965 2.005-9.991 2.277-14.983.271-4.994.153-9.971-.271-14.905z"/><path fill="#FFF" stroke="#000" stroke-linecap="round" stroke-miterlimit="10" stroke-width="3" d="M260.327 184.462s-177.355-59.868-59.854 44.06c55.21-27.024 59.854-44.06 59.854-44.06zM245.32 286.364s-19.58-26.644-50.002-17.903c-37.352 11.151-60.33 89.548-38.297 104.419 13.597 10.353 36.145 5.284 46.246-6.347 18.559-17.339 11.44-55.281 18.162-57.095 6.722-1.812 25.318 5.57 34.394-.229 9.076-5.8-10.503-22.845-10.503-22.845z"/><path d="m189.276 374.528 1.5-15.758 1.5 15.758a1.508 1.508 0 0 1-3 .286 1.607 1.607 0 0 1 0-.286zm-17.812 2.016 4.215-14.652-1.264 15.193a1.508 1.508 0 1 1-2.951-.541zm-16.25-5.809 8.38-13.169-5.707 14.528a1.509 1.509 0 0 1-1.954.853 1.509 1.509 0 0 1-.719-2.212z"/><linearGradient id="z" x1="232.826" x2="144.268" y1="292.46" y2="358.126" gradientUnits="userSpaceOnUse"><stop offset="0" style="stop-color:#6171c4"/><stop offset=".471" style="stop-color:#4e5388"/><stop offset=".817" style="stop-color:#424163"/><stop offset="1" style="stop-color:#3e3a55"/></linearGradient><path fill="url(#z)" d="M245.944 309.668c-3.979-.001-8.44-.687-12.375-1.291-5.169-.793-9.881-1.417-12.611-.684-3.792 1.023-4.315 6.808-5.184 16.392-.268 2.96-.565 6.175-.981 9.486-.256 1.593-.528 3.18-.847 4.753-1.005 4.994-2.38 9.886-4.41 14.39-1.996 4.509-4.727 8.597-8.252 11.695l-.009.01-.201.209c-2.976 3.106-6.736 5.577-10.815 7.317a37.343 37.343 0 0 1-12.889 2.972c-4.388.248-8.766-.364-12.687-1.881l-.744-.266-.642-.327-1.287-.633-.325-.151-.372-.247-.752-.502-1.504-1.009c-1.432-1.003-2.713-2.391-3.689-4.116-1.988-3.447-2.921-7.873-3.306-12.332-.345-4.496-.162-9.134.368-13.754.531-4.621 1.441-9.233 2.614-13.785a117.896 117.896 0 0 1 4.24-13.486c3.162-8.233 7.136-16.22 12.248-23.432 6.963-9.155 15.251-16.1 24.285-18.797 3.904-1.122 7.838-1.691 11.692-1.691 14.355 0 25.316 7.878 31.291 13.469.064-.272.119-.55.187-.821l1.048-3.006a.03.03 0 0 1 .004-.008c-6.605-5.886-17.804-13.248-32.529-13.248-4.192 0-8.461.616-12.708 1.836-9.186 2.743-17.626 9.53-24.795 18.492-.032.038-.066.073-.099.111-3.205 3.751-6.045 7.796-8.635 11.988a111.615 111.615 0 0 0-6.869 13.087 123.115 123.115 0 0 0-5.213 13.871c-1.421 4.744-2.553 9.592-3.307 14.539-.753 4.941-1.161 9.991-.83 15.134.349 5.115 1.272 10.435 4.076 15.422 1.394 2.477 3.369 4.812 5.93 6.533l1.511.997.754.499.385.252.484.251 1.951.987.981.476.958.349c5.095 1.961 10.523 2.499 15.752 2.123 5.245-.401 10.333-1.811 15.052-4.021 4.703-2.22 9.115-5.266 12.574-9.381l-.21.22c4.08-4.019 6.937-8.972 8.862-14.06 1.91-5.116 3-10.388 3.702-15.627.204-1.511.367-3.019.512-4.525.45-3.509.764-6.907 1.047-10.036.436-4.809 1.165-12.859 2.525-13.227.572-.154 1.336-.232 2.275-.232 2.35 0 5.504.484 8.845.999 4.063.624 8.668 1.331 12.924 1.332h.001c1.427 0 2.74-.09 3.97-.251a76.811 76.811 0 0 1-2.712-3.391c-.41.015-.826.027-1.259.027z"/><path fill="#FFF" stroke="#000" stroke-linecap="round" stroke-miterlimit="10" stroke-width="3" d="M324.859 174.118c-55.217-4.564-146.156 41.029-152.644 79.534-6.49 38.506 87.371 102.152 137.584 106.831 50.213 4.677 151.662-49.129 155.4-81.903 3.738-32.772-82.406-99.671-140.34-104.462z"/><path fill="#2F7FC1" stroke="#000" stroke-miterlimit="10" d="M306.423 248.622c-2.824 22.355-21.043 38.464-40.693 35.982-19.64-2.482-33.282-22.618-30.456-44.973 2.823-22.356 21.042-38.464 40.69-35.981 19.642 2.482 33.283 22.617 30.459 44.972zm95.036 8.223c-2.825 22.355-21.045 38.465-40.694 35.983-19.64-2.483-33.281-22.618-30.456-44.974 2.823-22.356 21.042-38.464 40.691-35.98 19.643 2.481 33.283 22.617 30.459 44.971z" opacity=".5"/><path fill="#FFF" stroke="#A0A0A0" stroke-miterlimit="10" d="M398.351 256.814c-2.424 19.182-18.059 33.003-34.916 30.875-16.854-2.131-28.557-19.407-26.132-38.588 2.421-19.182 18.054-33.003 34.913-30.873 16.853 2.13 28.557 19.406 26.135 38.586zm-98.222-8.81c-2.422 19.182-18.057 33.004-34.914 30.875-16.854-2.131-28.558-19.407-26.133-38.589 2.422-19.181 18.055-33.002 34.915-30.872 16.853 2.129 28.556 19.406 26.132 38.586z"/><path d="M290.252 236.442c-2.11.66-1.777 7.592-5.304 7.592a6.94 6.94 0 0 1-6.938-6.939c0-3.756 4.589-4.826 5.171-6.916.583-2.09-4.214-4.649-7.576-5.073-12.58-1.589-24.246 8.725-26.054 23.039-1.038 8.212 3.878 21.563 6.041 21.354 2.163-.209 1.469-2.45 2.937-2.45a2.99 2.99 0 0 1 2.988 2.99c0 1.396-1.781 1.119-2.256 2.888-.475 1.77 6.146 3.555 9.793 4.016 12.581 1.589 24.247-8.726 26.055-23.041.81-6.402-2.746-18.119-4.857-17.46zm92.325 7.482c-2.11.659-1.776 7.591-5.304 7.591a6.939 6.939 0 0 1-6.939-6.938c0-3.756 4.59-4.826 5.172-6.916.582-2.089-4.213-4.648-7.574-5.073-12.581-1.59-24.246 8.725-26.055 23.039-1.037 8.212 3.877 21.562 6.041 21.354 2.163-.209 1.469-2.45 2.936-2.45a2.989 2.989 0 0 1 2.988 2.99c0 1.397-1.779 1.119-2.256 2.889-.475 1.77 6.146 3.555 9.794 4.016 12.58 1.589 24.246-8.726 26.054-23.041.808-6.403-2.747-18.12-4.857-17.461z"/><path fill="none" stroke="#000" stroke-linecap="round" stroke-miterlimit="10" stroke-width="2" d="M315.892 295.358c-.781 8.92-1.881 19.643 1.317 28.193 1.951 5.224 4.008 3.914 10.347 3.651 8.933-.104 10.412-4.242 12.199-8.354"/><path d="M327.487 288.668c-.344 5.444-5.972 9.521-12.569 9.104-6.597-.418-11.665-5.171-11.321-10.615.735-11.592 5.778-6.438 12.374-6.02 6.596.417 12.251-4.06 11.516 7.531z"/><path fill="none" stroke="#000" stroke-linecap="round" stroke-miterlimit="10" d="m320.806 305.693 29.32-6.786m-29.103 10.625 21.799-1.786m-22.584 4.63 30.398 4.037m-42.19-11.527-27.932-11.204m27.127 14.964-21.266-5.108m21.607 8.039-30.659-.674"/><path fill="none" stroke="#000" stroke-linecap="round" stroke-miterlimit="10" stroke-width="2" d="M314.897 295.421c-.218 8.953-.318 19.73-4.447 27.873-2.521 4.975-4.42 3.443-10.69 2.477-8.865-1.099-9.875-5.376-11.193-9.662"/><linearGradient id="A" x1="171.544" x2="466.644" y1="258.147" y2="276.687" gradientUnits="userSpaceOnUse"><stop offset="0" style="stop-color:#47488b"/><stop offset=".262" style="stop-color:#6191c4"/><stop offset="1" style="stop-color:#3e3a5f"/></linearGradient><path fill="url(#A)" d="m469.315 274.783-.132-1.186c-.095-.786-.191-1.582-.312-2.35-.354-1.364-.691-2.737-1.082-4.071l-1.442-3.813c-4.407-9.746-10.65-17.557-17.082-24.552-.267-.288-.542-.55-.812-.834-6.241-6.605-12.798-12.4-19.367-17.582-8.045-6.346-16.083-11.778-23.881-16.518-25.71-16.909-55.274-30.012-80.154-32.069a99.407 99.407 0 0 0-8.158-.325c-23.259 0-52.052 7.377-79.198 20.039-.24.101-.474.194-.714.297-7.259 3.16-14.82 6.74-22.343 11.181-7.551 4.388-15.155 9.494-22.407 15.677-7.201 6.198-14.218 13.457-19.232 22.787l-1.691 3.625-1.344 3.854c-.087.347-.157.703-.239 1.053a327.973 327.973 0 0 0-.681 3.007c-.016.033-.091.646-.066.497l-.018.235-.034.471-.069.942-.139 1.889c.066 1.488.197 2.994.333 4.482l.897 4.092c.398 1.323.877 2.615 1.319 3.921.461 1.299 1.1 2.501 1.647 3.757 3.168 6.461 7.34 12.262 12.024 17.661 27.946 33.937 87.266 68.354 124.648 71.836 2.106.196 4.348.296 6.662.296 1.72 0 3.482-.053 5.278-.154 2.252-.088 4.495-.199 6.722-.459 2.924-.227 5.795-.711 8.688-1.109 2.855-.541 5.742-.982 8.562-1.654 5.683-1.204 11.241-2.798 16.768-4.436 5.481-1.762 10.922-3.612 16.237-5.713 10.664-4.115 20.959-8.896 30.857-14.16 9.901-5.261 19.421-11.002 28.318-17.443 4.458-3.2 8.771-6.584 12.801-10.27 4.059-3.645 7.852-7.608 11.196-12.026 3.279-4.428 6.317-9.37 7.412-15.48l.209-1.128c.051-.755.017-.346.03-.575l.004-.237.011-.473.04-1.887c.028-.277-.027-.702-.066-1.095zm-8.204 2.726-.02.474-.005.194-.153.668c-.686 3.898-2.981 8.05-5.854 11.866-2.891 3.839-6.345 7.497-10.139 10.909-3.781 3.421-7.763 6.77-12.002 9.89-8.417 6.321-17.569 12.062-27.123 17.349-9.548 5.306-19.547 10.102-29.854 14.362-10.305 4.264-20.92 8.037-31.81 10.86-2.71.773-5.462 1.322-8.202 1.973-2.758.504-5.515 1.102-8.298 1.443-2.757.452-5.539.659-8.301.889l-.271.012-.532.021c-.774.021-1.544.033-2.301.033-2.171 0-4.268-.093-6.232-.275-35.191-3.279-92.852-36.565-120.276-68.73-.219-.27-.429-.542-.645-.813a106.553 106.553 0 0 1-2.99-3.92c-3.199-4.411-5.964-8.994-8.017-13.762-.428-1.14-.961-2.25-1.304-3.396-.319-1.149-.687-2.286-.976-3.424-.196-1.142-.389-2.281-.583-3.417a50.821 50.821 0 0 0-.146-3.111l.354-3.497.827-3.248 1.198-3.167 1.528-3.058c2.226-3.999 4.985-7.724 8-11.178 3.055-3.433 6.376-6.574 9.734-9.584 1.696-1.486 3.433-2.91 5.158-4.313 1.783-1.34 3.483-2.75 5.289-4.001 3.548-2.578 7.081-5.067 10.669-7.32a250.337 250.337 0 0 1 25.831-14.435c23.938-10.639 50.439-17.68 73.227-17.68 2.676 0 5.293.104 7.775.31 23.222 1.92 50.678 13.777 75.01 29.325a263.841 263.841 0 0 1 6.209 4.363c6.281 4.58 12.631 9.717 19.034 15.28 3.202 2.785 6.353 5.751 9.505 8.812 1.592 1.516 3.106 3.129 4.686 4.708a373.29 373.29 0 0 1 3.235 3.535c.438.481.883.944 1.313 1.434 1.09 1.26 2.17 2.552 3.244 3.858 4.709 5.746 9.11 11.949 12.025 18.754l1.138 3.142c.263 1.048.529 2.1.795 3.155l.155 1.371.1.681c.034.23.094.426.06.776l-.065 1.882z"/><linearGradient id="B" x1="426.746" x2="476.186" y1="215.5" y2="181.51" gradientUnits="userSpaceOnUse"><stop offset="0" style="stop-color:#6171c4"/><stop offset=".471" style="stop-color:#4e5388"/><stop offset=".817" style="stop-color:#424163"/><stop offset="1" style="stop-color:#3e3a55"/></linearGradient><path fill="url(#B)" d="M487.707 198.739c-1.056-2.493-2.912-4.348-4.762-5.639-1.867-1.337-3.828-2.158-5.74-2.809-1.923-.684-3.825-1.1-5.721-1.491-3.789-.725-7.526-1.048-11.238-1.231-3.715-.192-7.4-.154-11.067-.002-7.329.314-14.597.914-21.8 1.912-.492.065-.98.149-1.47.216-14.748 1.425-28.484 3.624-35.899 4.909 2.1 1.186 4.182 2.406 6.251 3.652 7.533-1.222 18.134-2.771 29.373-3.879.728-.042 1.456-.105 2.184-.143 7.167-.337 14.319-.641 21.425-.498 3.551.072 7.084.231 10.575.505 3.484.292 6.946.724 10.226 1.475 1.62.397 3.242.812 4.702 1.399.767.254 1.418.612 2.115.918.612.373 1.288.697 1.787 1.103 2.19 1.649 2.826 3.083 2.279 5.614-.062.599-.392 1.277-.585 1.928-.331.667-.602 1.344-.996 2.018-.766 1.352-1.687 2.696-2.698 4.009-2.025 2.633-4.437 5.132-6.891 7.586-2.471 2.45-5.118 4.784-7.813 7.069a218.867 218.867 0 0 1-8.308 6.663 861.566 861.566 0 0 1-5.183 3.954c.27.284.545.547.812.834a153.733 153.733 0 0 1 4.046 4.581 227.039 227.039 0 0 0 4.804-3.462c2.928-2.19 5.821-4.44 8.658-6.785 2.838-2.348 5.64-4.757 8.326-7.358 2.694-2.593 5.313-5.304 7.642-8.438 1.171-1.557 2.281-3.204 3.271-5.005.503-.89.92-1.891 1.354-2.854.345-1.069.771-2.054.949-3.253.47-2.253.492-5.007-.608-7.498z"/><linearGradient id="C" x1="222.48" x2="176.901" y1="200.816" y2="157.555" gradientUnits="userSpaceOnUse"><stop offset="0" style="stop-color:#6171c4"/><stop offset=".471" style="stop-color:#4e5388"/><stop offset=".817" style="stop-color:#424163"/><stop offset="1" style="stop-color:#3e3a55"/></linearGradient><path fill="url(#C)" d="M194.216 217.033c-2.181-2.121-4.315-4.281-6.442-6.435a219.999 219.999 0 0 1-7.287-7.716c-2.351-2.617-4.671-5.253-6.781-7.985-2.1-2.73-4.145-5.501-5.776-8.326-.818-1.411-1.536-2.832-2.101-4.226-.295-.698-.463-1.37-.696-2.044-.096-.627-.326-1.311-.307-1.853-.096-1.167.034-2.03.423-2.661.366-.652 1.083-1.312 2.174-1.897.501-.312 1.185-.535 1.803-.814.706-.206 1.368-.468 2.141-.619 1.477-.384 3.111-.584 4.743-.768 3.301-.318 6.762-.302 10.234-.145 3.475.18 6.987.469 10.507.844 7.045.752 14.087 1.969 21.152 3.187 3.528.63 7.053 1.311 10.574 2.036l.22.045a516.563 516.563 0 0 1 24.87 7.102 236.442 236.442 0 0 1 7.117-2.585c-2.199-.734-15.07-4.985-30.971-9.079l-.069-.022a412.239 412.239 0 0 0-10.464-3.082c-3.505-.988-7.032-1.924-10.6-2.715a236.458 236.458 0 0 0-10.774-2.212c-3.623-.661-7.285-1.208-11.01-1.521-3.727-.324-7.5-.514-11.402-.305-1.958.133-3.927.288-5.971.715-2.023.398-4.137.955-6.254 2.078-2.087 1.075-4.297 2.753-5.765 5.237-1.514 2.478-1.876 5.38-1.702 7.775.023 1.274.32 2.337.528 3.487.31 1.043.603 2.124.99 3.096.759 1.964 1.657 3.777 2.624 5.501 1.918 3.466 4.168 6.527 6.504 9.481a104.953 104.953 0 0 0 3.586 4.314c1.206 1.425 2.456 2.784 3.718 4.137a230.069 230.069 0 0 0 7.748 7.862 242.716 242.716 0 0 0 6.263 5.804 123.786 123.786 0 0 1 4.466-4.044c.659-.562 1.323-1.104 1.987-1.647z"/><linearGradient id="D" x1="9" x2="589.124" y1="71.447" y2="71.447" gradientUnits="userSpaceOnUse"><stop offset="0" style="stop-color:#46498b"/><stop offset=".489" style="stop-color:#35a8e0"/><stop offset="1" style="stop-color:#3e3a5f"/></linearGradient><path fill="url(#D)" d="M91.675 63.522c-.34 1.925-.793 3.962-1.359 5.095-.339.68-1.132 2.264-2.377 3.962 0 3.396 0 6.793.226 9.624 1.019 13.133 1.812 19.7 2.151 23.096 0 3.17-.68 3.736-2.038 4.868-.793.339-2.604 1.019-4.868 1.019a12.76 12.76 0 0 1-3.397-.453c-3.962-.566-5.548-1.698-6.68-3.396-2.265-1.925-2.49-8.378-2.49-11.322V78.806c-5.322 1.019-10.643 2.038-15.964 3.17v.453c.906 13.473 1.698 19.133 2.039 22.417 0 3.283-.792 3.623-2.039 4.868-.679.453-2.943 1.246-5.773 1.246-.793 0-1.585-.113-2.491-.227-3.962-1.019-5.434-1.698-6.566-3.736-2.264-2.038-2.49-9.058-2.49-11.774V81.411c-2.378-.906-3.623-2.491-3.623-5.321 0-.566.113-1.245.227-2.038 0-1.698 1.019-2.83 3.396-3.962-.453-22.53-1.925-28.53-1.925-32.379 0-2.831.792-4.529 3.623-5.321 2.83-.453 4.868-.68 6.566-.68 3.623 0 5.095 1.019 6.227 2.604 2.377 2.377 2.603 9.283 2.603 12.793v18.341c5.096-.906 10.19-1.585 16.191-2.718-.453-14.718-1.925-20.832-1.925-24.681 0-2.943.905-4.642 3.736-5.66 2.264-.227 4.188-.34 5.661-.34 4.189 0 5.661.906 7.133 2.604 2.264 2.151 2.604 7.812 2.604 11.548 0 1.925-.113 3.396-.113 3.396v11.322c3.395-.001 3.735 1.131 3.735 2.603z"/><linearGradient id="E" x1="9" x2="589.124" y1="71.617" y2="71.617" gradientUnits="userSpaceOnUse"><stop offset="0" style="stop-color:#46498b"/><stop offset=".489" style="stop-color:#35a8e0"/><stop offset="1" style="stop-color:#3e3a5f"/></linearGradient><path fill="url(#E)" d="M146.807 40.652c-.566 3.962-9.397 17.096-17.096 31.247 0 10.53 1.019 20.04 2.264 31.475 0 5.208-2.604 7.812-7.02 7.812-1.132 0-2.264-.113-3.623-.453-8.038-1.811-8.83-11.435-8.83-18.794V71.107c-2.718-4.076-7.246-8.718-7.925-9.51C96.425 50.729 90.425 46.2 90.425 42.124c0-1.132.453-2.264 1.472-3.396 4.868-4.642 7.699-6.113 9.85-6.113.679 0 1.359.227 2.038.453 5.095.792 11.094 11.208 11.094 11.208s2.831 4.076 6.567 9.51l1.472-2.038c8.038-12.681 9.284-19.7 13.699-19.7.566 0 1.132.114 1.812.34 7.245 3.509 8.378 5.774 8.378 8.264z"/><linearGradient id="F" x1="9" x2="589.124" y1="71.957" y2="71.957" gradientUnits="userSpaceOnUse"><stop offset="0" style="stop-color:#46498b"/><stop offset=".489" style="stop-color:#35a8e0"/><stop offset="1" style="stop-color:#3e3a5f"/></linearGradient><path fill="url(#F)" d="M199.445 56.616c0 2.377-.113 4.982-.566 7.812-4.189 14.492-18.794 18.794-29.097 18.794h-1.584s.453 7.133.453 14.039c0 6.228-.34 12.341-1.925 12.681-1.698 1.019-3.396 1.246-4.755 1.246-1.245 0-2.151-.227-2.151-.227-3.396-.792-4.642-1.811-6-3.736-1.698-1.698-1.925-7.586-1.925-10.642V57.862c0-9.397-1.698-15.397-1.698-19.133 0-2.943.792-4.529 3.284-5.321 2.377-.453 4.188-.679 5.66-.679 2.604 0 3.963.679 4.868 1.698 2.718-.68 6.114-1.132 9.964-1.132 14.151-.002 25.472 4.979 25.472 23.321zm-28.983 10.982c5.548 0 12.906-1.473 14.039-10.643 0-.339-.227-5.661-4.868-7.698 0 0-2.944-1.132-7.246-1.132-1.585 0-3.284.113-5.208.566l.906 18.794c.791-.001 1.585.113 2.377.113z"/><linearGradient id="G" x1="9" x2="589.124" y1="71.561" y2="71.561" gradientUnits="userSpaceOnUse"><stop offset="0" style="stop-color:#46498b"/><stop offset=".489" style="stop-color:#35a8e0"/><stop offset="1" style="stop-color:#3e3a5f"/></linearGradient><path fill="url(#G)" d="M252.652 96.694c0 2.604-1.812 6.113-3.736 8.151-3.17 2.944-9.737 4.416-9.737 4.416s-11.321 1.812-20.152 1.812c-3.284 0-6.228-.227-8.152-.906 0 0-.905-.227-1.811-1.019-1.133-.567-1.925-1.246-2.604-2.151-2.038-1.812-2.264-7.586-2.264-10.756V94.09c0-8.038-.114-16.189-.114-24.454 0-4.076 0-8.152.114-12.341-.34-9.397-1.812-15.397-1.812-19.247 0-2.943.792-4.529 3.623-5.321 2.604-.453 4.642-.68 6.227-.68 3.623 0 5.095 1.132 6.227 2.604.566.453.905 1.019 1.245 1.812a58.94 58.94 0 0 1 4.529-1.02c4.754-.905 10.302-1.245 15.624-1.245 2.377 0 4.755 0 7.019.227 2.378.226 3.284 1.585 3.284 3.396 0 2.604-1.812 6.114-3.736 8.151-5.208 4.529-18.114 4.416-25.247 5.321v13.359c7.133-1.472 14.492-1.811 22.077-1.811 1.246.113 3.17.339 3.17 2.377 0 .453-.113 1.132-.339 1.811-2.944 10.756-11.095 11.661-21.398 12.681l-3.283.339V95.56c8.831-2.151 19.021-1.925 27.964-2.264 2.377.228 3.282 1.587 3.282 3.398z"/><linearGradient id="H" x1="9" x2="589.124" y1="71.221" y2="71.221" gradientUnits="userSpaceOnUse"><stop offset="0" style="stop-color:#46498b"/><stop offset=".489" style="stop-color:#35a8e0"/><stop offset="1" style="stop-color:#3e3a5f"/></linearGradient><path fill="url(#H)" d="M309.141 104.506c0 .566-.453 1.02-.453 1.472-.453 1.585-2.264 3.623-5.887 4.529-1.246.34-2.265.453-3.057.453-1.359 0-2.378-.339-3.623-1.019-3.17-1.245-8.038-10.869-8.038-10.869l-8.832-17.662c-.792.113-1.811.113-2.831.113-1.019 0-2.038 0-2.717-.113 0 0 .566 7.812.566 15.171 0 6.566-.453 12.793-2.038 13.132-1.698 1.019-3.509 1.246-4.868 1.246-1.245 0-2.151-.227-2.151-.227-3.396-.792-4.642-1.811-6-3.849-1.811-1.698-2.038-7.812-2.038-10.869v-39.06c0-9.396-1.698-15.511-1.698-19.36 0-3.057.792-4.642 3.396-5.434 2.377-.453 4.189-.68 5.661-.68 2.604 0 4.076.68 4.981 1.698 2.717-.679 7.812-1.132 12.567-1.132 2.037 0 4.076.114 5.774.227 3.736.114 20.944 1.698 20.944 23.549 0 2.264-.113 4.868-.566 7.699-2.151 7.359-6.566 11.208-13.02 13.925 4.303 7.699 7.925 15.963 12.681 23.662.907 1.7 1.247 2.719 1.247 3.398zM275.29 66.352c6.566 0 17.095-1.698 17.208-11.435 0-5.321-4.529-8.605-12.454-8.605-2.377 0-4.981.227-7.924.906l1.019 19.021c.679 0 1.358.113 2.151.113z"/><linearGradient id="I" x1="9" x2="589.124" y1="70.768" y2="70.768" gradientUnits="userSpaceOnUse"><stop offset="0" style="stop-color:#46498b"/><stop offset=".489" style="stop-color:#35a8e0"/><stop offset="1" style="stop-color:#3e3a5f"/></linearGradient><path fill="url(#I)" d="M399.364 94.204s-1.925 6.453-9.511 15.51c0 0-.792 1.359-2.377 1.359-1.133 0-2.604-.567-4.529-2.718-7.02-7.812-15.85-18.568-17.774-20.718l1.019 18.228c0 .906-.227 3.849-1.698 3.849-.793.68-2.83 1.359-5.435 1.359-1.019 0-1.925-.114-3.057-.34-3.963-.792-5.547-1.811-6.906-3.509-2.037-1.812-2.264-7.812-2.264-10.982V56.39c0-9.624-1.925-15.851-1.925-19.699 0-2.944.905-4.529 3.735-5.435 2.604-.453 4.756-.68 6.34-.68 3.737 0 5.096 1.132 6.454 2.604 2.49 2.491 2.943 8.832 2.943 12.454 0 3.17-.227 6.453-.227 11.548 1.925-1.698 3.963-3.736 4.416-4.302l.34-.34c2.717-3.056 10.529-12.114 15.963-19.36.906-1.132 2.151-2.717 3.85-2.717.68 0 2.604.227 4.642 2.378 2.718 2.83 5.095 10.416 5.095 13.585-1.472 2.377-10.755 11.322-25.134 23.549-.227.226-.227.566-.227.793 0 .566.34 1.131.905 1.584l25.362 21.852z"/><linearGradient id="J" x1="9" x2="589.124" y1="71.617" y2="71.617" gradientUnits="userSpaceOnUse"><stop offset="0" style="stop-color:#46498b"/><stop offset=".489" style="stop-color:#35a8e0"/><stop offset="1" style="stop-color:#3e3a5f"/></linearGradient><path fill="url(#J)" d="M401.622 37.595c0-2.944.906-4.642 3.736-5.434 2.604-.453 4.643-.566 6.227-.566 3.737 0 5.209 1.02 6.34 2.491 2.491 2.377 2.944 8.717 2.944 12.34 0 .906-.113 1.811-.113 10.755 0 7.133 0 17.549.453 25.134.68 13.473 1.472 20.039 1.811 23.323 0 1.359-.112 4.076-1.925 4.529-.792.792-2.603 1.472-5.207 1.472-1.019 0-2.151-.113-3.396-.34-3.85-.792-5.208-1.924-6.68-3.736-2.038-1.812-2.265-8.152-2.265-11.208V57.182c-.453-9.511-1.925-15.738-1.925-19.587z"/><linearGradient id="K" x1="9" x2="589.124" y1="71.334" y2="71.334" gradientUnits="userSpaceOnUse"><stop offset="0" style="stop-color:#46498b"/><stop offset=".489" style="stop-color:#35a8e0"/><stop offset="1" style="stop-color:#3e3a5f"/></linearGradient><path fill="url(#K)" d="M429.697 40.086c1.359 0 2.604-.114 4.076-.114.906 0 6.68-.113 14.378-2.264 8.492-2.378 24.568-5.774 26.72-5.774.564 0 1.02-.114 1.471-.114 1.473 0 2.152.453 3.059 1.585 1.132 1.472 2.036 10.189 2.264 12.793-4.075.113-19.36 5.321-19.36 5.321s1.133 17.322 1.698 29.776c.68 13.699 1.472 20.039 1.812 23.549 0 3.396-.793 3.623-1.924 4.529-.794.792-2.718 1.472-5.209 1.472-1.019 0-2.037-.114-3.283-.34-3.962-.792-5.435-2.038-6.793-3.623-2.151-1.925-2.378-8.378-2.378-11.435V56.163l-10.868 2.039s-.679.113-1.472.113c-1.132 0-2.718-.227-3.623-1.698-2.377-2.038-2.604-10.189-2.604-14.265v-2.378c.678.112 1.358.112 2.036.112z"/><linearGradient id="L" x1="9" x2="589.124" y1="71.334" y2="71.334" gradientUnits="userSpaceOnUse"><stop offset="0" style="stop-color:#46498b"/><stop offset=".489" style="stop-color:#35a8e0"/><stop offset="1" style="stop-color:#3e3a5f"/></linearGradient><path fill="url(#L)" d="M486.413 40.086c1.358 0 2.604-.114 4.076-.114.906 0 6.68-.113 14.378-2.264 8.491-2.378 24.567-5.774 26.719-5.774.566 0 1.019-.114 1.473-.114 1.471 0 2.149.453 3.056 1.585 1.133 1.472 2.039 10.189 2.265 12.793-4.076.113-19.36 5.321-19.36 5.321s1.133 17.322 1.698 29.776c.68 13.699 1.473 20.039 1.812 23.549 0 3.396-.792 3.623-1.924 4.529-.794.792-2.718 1.472-5.208 1.472-1.019 0-2.038-.114-3.284-.34-3.962-.792-5.433-2.038-6.793-3.623-2.15-1.925-2.377-8.378-2.377-11.435V56.163l-10.868 2.039s-.679.113-1.473.113c-1.132 0-2.716-.227-3.622-1.698-2.377-2.038-2.604-10.189-2.604-14.265v-2.378c.677.112 1.355.112 2.036.112z"/><linearGradient id="M" x1="9" x2="589.124" y1="71.617" y2="71.617" gradientUnits="userSpaceOnUse"><stop offset="0" style="stop-color:#46498b"/><stop offset=".489" style="stop-color:#35a8e0"/><stop offset="1" style="stop-color:#3e3a5f"/></linearGradient><path fill="url(#M)" d="M597.132 40.652c-.565 3.962-9.397 17.096-17.096 31.247 0 10.53 1.02 20.04 2.265 31.475 0 5.208-2.604 7.812-7.019 7.812-1.133 0-2.265-.113-3.624-.453-8.038-1.811-8.83-11.435-8.83-18.794V71.107c-2.718-4.076-7.246-8.718-7.926-9.51-8.15-10.869-14.151-15.398-14.151-19.474 0-1.132.452-2.264 1.472-3.396 4.867-4.642 7.698-6.113 9.85-6.113.679 0 1.358.227 2.037.453 5.095.792 11.096 11.208 11.096 11.208s2.831 4.076 6.567 9.51l1.471-2.038c8.04-12.681 9.285-19.7 13.699-19.7.566 0 1.134.114 1.812.34 7.245 3.51 8.377 5.775 8.377 8.265z"/></svg>