<svg xmlns="http://www.w3.org/2000/svg" xmlns:xlink="http://www.w3.org/1999/xlink" xml:space="preserve" width="345" height="345"><defs><linearGradient id="c" x1="171.544" x2="466.644" y1="258.147" y2="276.687" gradientUnits="userSpaceOnUse"><stop offset="0" style="stop-color:#47488b"/><stop offset=".262" style="stop-color:#6191c4"/><stop offset="1" style="stop-color:#3e3a5f"/></linearGradient><linearGradient id="d" x1="426.746" x2="476.186" y1="215.5" y2="181.51" gradientUnits="userSpaceOnUse"><stop offset="0" style="stop-color:#6171c4"/><stop offset=".471" style="stop-color:#4e5388"/><stop offset=".817" style="stop-color:#424163"/><stop offset="1" style="stop-color:#3e3a55"/></linearGradient><linearGradient id="e" x1="222.48" x2="176.901" y1="200.816" y2="157.555" gradientUnits="userSpaceOnUse"><stop offset="0" style="stop-color:#6171c4"/><stop offset=".471" style="stop-color:#4e5388"/><stop offset=".817" style="stop-color:#424163"/><stop offset="1" style="stop-color:#3e3a55"/></linearGradient><linearGradient xlink:href="#a" id="f" x1="403.164" x2="457.987" y1="295.925" y2="390.51" gradientUnits="userSpaceOnUse"/><linearGradient xlink:href="#b" id="g" x1="232.826" x2="144.268" y1="292.46" y2="358.126" gradientUnits="userSpaceOnUse"/><linearGradient xlink:href="#c" id="h" x1="171.544" x2="466.644" y1="258.147" y2="276.687" gradientTransform="translate(-144.938 -58.473)" gradientUnits="userSpaceOnUse"/><linearGradient xlink:href="#d" id="i" x1="426.746" x2="476.186" y1="215.5" y2="181.51" gradientTransform="translate(-144.938 -58.473)" gradientUnits="userSpaceOnUse"/><linearGradient xlink:href="#e" id="j" x1="222.48" x2="176.901" y1="200.816" y2="157.555" gradientTransform="translate(-144.938 -58.473)" gradientUnits="userSpaceOnUse"/></defs><path stroke-miterlimit="10" d="M239.795 139.441s183.721-35.852 53.491 51.6c-51.145-34.1-53.49-51.6-53.49-51.6z" style="fill:#fff;stroke:#000;stroke-width:3;stroke-linecap:round;stroke-miterlimit:10" transform="translate(.659 -52.338)"/><g transform="translate(-144.28 -110.811)"><path stroke-miterlimit="10" d="M384.06 294.678s24.608-22.085 52.606-7.317c34.288 18.542 40.776 99.978 16.171 110.038-15.424 7.359-36.463-2.206-43.977-15.655-14.627-20.762.089-56.451-6.121-59.6-6.211-3.146-25.923.285-33.624-7.247-7.702-7.532 14.945-20.219 14.945-20.219z" style="fill:#fff;stroke:#000;stroke-width:3;stroke-linecap:round;stroke-miterlimit:10"/><path d="m421.616 394.622 1.5-15.759 1.5 15.759a1.508 1.508 0 0 1-3 .286 1.607 1.607 0 0 1 0-.286zm17.86 3.76-1.264-15.193 4.215 14.652a1.508 1.508 0 1 1-2.951.541zm16.527-4.988-5.707-14.53 8.381 13.171a1.506 1.506 0 1 1-2.674 1.359z"/><linearGradient id="a" x1="403.164" x2="457.987" y1="295.925" y2="390.51" gradientUnits="userSpaceOnUse"><stop offset="0" style="stop-color:#6171c4"/><stop offset=".471" style="stop-color:#4e5388"/><stop offset=".817" style="stop-color:#424163"/><stop offset="1" style="stop-color:#3e3a55"/></linearGradient><path d="M470.426 351.421a123.007 123.007 0 0 0-2.271-14.643 111.583 111.583 0 0 0-4.053-14.215c-1.68-4.634-3.634-9.173-6.006-13.5-.029-.054-.061-.104-.091-.157-5.189-10.227-12.065-18.585-20.496-23.144-6.663-3.514-13.699-5.296-20.918-5.296-9.413 0-17.566 2.973-23.505 6.063.165.439.332.877.499 1.319.214.729.4 1.48.593 2.226 5.595-2.993 13.441-5.993 22.413-5.993 6.624 0 13.095 1.641 19.214 4.869 8.312 4.495 15.02 13.005 19.972 23.412 3.521 8.092 5.774 16.707 7.186 25.398a117.393 117.393 0 0 1 1.398 14.065c.219 4.696.167 9.396-.256 14.03-.424 4.63-1.192 9.208-2.449 13.538-1.286 4.287-3.102 8.428-5.751 11.396-1.312 1.49-2.846 2.587-4.455 3.278l-1.678.678-.839.342-.414.161-.349.085-1.39.355-.695.188-.782.11c-4.148.683-8.559.388-12.803-.75a37.304 37.304 0 0 1-12.011-5.54c-3.639-2.537-6.815-5.724-9.092-9.371l-.155-.248-.007-.01c-2.816-3.754-4.657-8.312-5.69-13.134-1.068-4.824-1.414-9.893-1.379-14.989.009-1.593.064-3.192.14-4.796.268-3.337.634-6.553.978-9.514 1.106-9.56 1.775-15.328-1.729-17.105-2.737-1.387-7.253-1.627-12.483-1.904-2.955-.158-6.202-.334-9.305-.757-.556.528-1.11 1.058-1.68 1.569-.575.526-1.165 1.035-1.753 1.545 4.022.796 8.42 1.032 12.546 1.252 4.619.244 8.983.477 11.041 1.519 1.256.638.327 8.668-.229 13.466-.361 3.117-.747 6.506-1.022 10.025a123.9 123.9 0 0 0-.424 4.545c-.382 5.273-.393 10.655.434 16.055.847 5.373 2.632 10.806 5.806 15.57l-.161-.255c2.545 4.733 6.242 8.617 10.394 11.75 4.167 3.129 8.861 5.547 13.913 7.01 5.042 1.435 10.467 2.018 15.854 1.139l1.009-.146 1.058-.267 2.11-.568.526-.147.428-.166.842-.335 1.681-.667c2.86-1.162 5.27-3.046 7.14-5.185 3.765-4.312 5.754-9.331 7.14-14.268 1.372-4.965 2.005-9.991 2.277-14.983.271-4.994.153-9.971-.271-14.905z" style="fill:url(#f)"/></g><path stroke-miterlimit="10" d="M115.39 125.99s-177.357-59.87-59.856 44.06c55.21-27.025 59.854-44.06 59.854-44.06z" style="fill:#fff;stroke:#000;stroke-width:3;stroke-linecap:round;stroke-miterlimit:10" transform="translate(.659 -52.338)"/><g transform="translate(-144.28 -110.811)"><path stroke-miterlimit="10" d="M245.32 286.364s-19.58-26.644-50.002-17.903c-37.352 11.151-60.33 89.548-38.297 104.419 13.597 10.353 36.145 5.284 46.246-6.347 18.559-17.339 11.44-55.281 18.162-57.095 6.722-1.812 25.318 5.57 34.394-.229 9.076-5.8-10.503-22.845-10.503-22.845z" style="fill:#fff;stroke:#000;stroke-width:3;stroke-linecap:round;stroke-miterlimit:10"/><path d="m189.276 374.528 1.5-15.758 1.5 15.758a1.508 1.508 0 0 1-3 .286 1.607 1.607 0 0 1 0-.286zm-17.812 2.016 4.215-14.652-1.264 15.193a1.508 1.508 0 1 1-2.951-.541zm-16.25-5.809 8.38-13.169-5.707 14.528a1.509 1.509 0 0 1-1.954.853 1.509 1.509 0 0 1-.719-2.212z"/><linearGradient id="b" x1="232.826" x2="144.268" y1="292.46" y2="358.126" gradientUnits="userSpaceOnUse"><stop offset="0" style="stop-color:#6171c4"/><stop offset=".471" style="stop-color:#4e5388"/><stop offset=".817" style="stop-color:#424163"/><stop offset="1" style="stop-color:#3e3a55"/></linearGradient><path d="M245.944 309.668c-3.979-.001-8.44-.687-12.375-1.291-5.169-.793-9.881-1.417-12.611-.684-3.792 1.023-4.315 6.808-5.184 16.392-.268 2.96-.565 6.175-.981 9.486-.256 1.593-.528 3.18-.847 4.753-1.005 4.994-2.38 9.886-4.41 14.39-1.996 4.509-4.727 8.597-8.252 11.695l-.009.01-.201.209c-2.976 3.106-6.736 5.577-10.815 7.317a37.343 37.343 0 0 1-12.889 2.972c-4.388.248-8.766-.364-12.687-1.881l-.744-.266-.642-.327-1.287-.633-.325-.151-.372-.247-.752-.502-1.504-1.009c-1.432-1.003-2.713-2.391-3.689-4.116-1.988-3.447-2.921-7.873-3.306-12.332-.345-4.496-.162-9.134.368-13.754.531-4.621 1.441-9.233 2.614-13.785a117.896 117.896 0 0 1 4.24-13.486c3.162-8.233 7.136-16.22 12.248-23.432 6.963-9.155 15.251-16.1 24.285-18.797 3.904-1.122 7.838-1.691 11.692-1.691 14.355 0 25.316 7.878 31.291 13.469.064-.272.119-.55.187-.821l1.048-3.006a.03.03 0 0 1 .004-.008c-6.605-5.886-17.804-13.248-32.529-13.248-4.192 0-8.461.616-12.708 1.836-9.186 2.743-17.626 9.53-24.795 18.492-.032.038-.066.073-.099.111-3.205 3.751-6.045 7.796-8.635 11.988a111.615 111.615 0 0 0-6.869 13.087 123.115 123.115 0 0 0-5.213 13.871c-1.421 4.744-2.553 9.592-3.307 14.539-.753 4.941-1.161 9.991-.83 15.134.349 5.115 1.272 10.435 4.076 15.422 1.394 2.477 3.369 4.812 5.93 6.533l1.511.997.754.499.385.252.484.251 1.951.987.981.476.958.349c5.095 1.961 10.523 2.499 15.752 2.123 5.245-.401 10.333-1.811 15.052-4.021 4.703-2.22 9.115-5.266 12.574-9.381l-.21.22c4.08-4.019 6.937-8.972 8.862-14.06 1.91-5.116 3-10.388 3.702-15.627.204-1.511.367-3.019.512-4.525.45-3.509.764-6.907 1.047-10.036.436-4.809 1.165-12.859 2.525-13.227.572-.154 1.336-.232 2.275-.232 2.35 0 5.504.484 8.845.999 4.063.624 8.668 1.331 12.924 1.332h.001c1.427 0 2.74-.09 3.97-.251a76.811 76.811 0 0 1-2.712-3.391c-.41.015-.826.027-1.259.027z" style="fill:url(#g)"/></g><path stroke-miterlimit="10" d="M179.921 115.645c-55.217-4.564-146.156 41.03-152.644 79.534-6.49 38.506 87.371 102.152 137.584 106.831 50.213 4.677 151.662-49.129 155.4-81.903 3.738-32.772-82.406-99.67-140.34-104.462z" style="fill:#fff;stroke:#000;stroke-width:3;stroke-linecap:round;stroke-miterlimit:10" transform="translate(.659 -52.338)"/><path stroke-miterlimit="10" d="M161.485 190.15c-2.824 22.354-21.043 38.463-40.693 35.981-19.64-2.482-33.282-22.618-30.456-44.973 2.823-22.356 21.042-38.464 40.69-35.98 19.642 2.481 33.283 22.616 30.46 44.971zm95.036 8.222c-2.825 22.355-21.045 38.465-40.694 35.983-19.64-2.483-33.28-22.618-30.456-44.974 2.823-22.356 21.042-38.464 40.691-35.98 19.643 2.481 33.283 22.617 30.46 44.971z" style="opacity:.5;fill:#2f7fc1;stroke:#000;stroke-miterlimit:10" transform="translate(.659 -52.338)"/><path stroke-miterlimit="10" d="M253.413 198.341c-2.424 19.182-18.059 33.003-34.916 30.875-16.854-2.13-28.557-19.407-26.132-38.588 2.421-19.182 18.054-33.003 34.913-30.873 16.853 2.13 28.557 19.406 26.135 38.586zm-98.222-8.81c-2.422 19.182-18.057 33.004-34.914 30.875-16.854-2.13-28.558-19.407-26.133-38.589 2.422-19.18 18.055-33.002 34.915-30.872 16.853 2.13 28.556 19.406 26.132 38.586z" style="fill:#fff;stroke:#a0a0a0;stroke-miterlimit:10" transform="translate(.659 -52.338)"/><path d="M145.973 125.631c-2.11.66-1.777 7.592-5.304 7.592a6.94 6.94 0 0 1-6.938-6.939c0-3.756 4.589-4.826 5.17-6.916.584-2.09-4.213-4.649-7.575-5.073-12.58-1.589-24.246 8.725-26.054 23.039-1.038 8.212 3.878 21.563 6.04 21.354 2.164-.209 1.47-2.45 2.938-2.45a2.99 2.99 0 0 1 2.988 2.99c0 1.396-1.781 1.119-2.256 2.888-.475 1.77 6.146 3.555 9.793 4.016 12.58 1.589 24.247-8.726 26.055-23.041.81-6.402-2.746-18.119-4.857-17.46zm92.325 7.482c-2.11.659-1.776 7.591-5.304 7.591a6.939 6.939 0 0 1-6.94-6.938c0-3.756 4.59-4.826 5.173-6.916.582-2.089-4.213-4.648-7.574-5.073-12.581-1.59-24.246 8.725-26.055 23.039-1.037 8.212 3.877 21.562 6.04 21.354 2.164-.209 1.47-2.45 2.937-2.45a2.989 2.989 0 0 1 2.988 2.99c0 1.397-1.78 1.119-2.256 2.889-.475 1.77 6.146 3.555 9.794 4.016 12.58 1.589 24.246-8.726 26.054-23.041.808-6.403-2.747-18.12-4.857-17.461z"/><path stroke-miterlimit="10" d="M170.954 236.885c-.78 8.92-1.88 19.643 1.317 28.193 1.951 5.224 4.008 3.914 10.347 3.651 8.933-.104 10.412-4.242 12.2-8.354" style="fill:none;stroke:#000;stroke-width:2;stroke-linecap:round;stroke-miterlimit:10" transform="translate(.659 -52.338)"/><path d="M183.208 177.857c-.344 5.444-5.972 9.521-12.57 9.104-6.596-.418-11.664-5.171-11.32-10.615.735-11.592 5.778-6.438 12.374-6.02 6.596.417 12.25-4.06 11.516 7.531z"/><path stroke-miterlimit="10" d="m320.806 305.693 29.32-6.786m-29.103 10.625 21.799-1.786m-22.584 4.63 30.398 4.037m-42.19-11.527-27.932-11.204m27.127 14.964-21.266-5.108m21.607 8.039-30.659-.674" style="fill:none;stroke:#000;stroke-linecap:round;stroke-miterlimit:10" transform="translate(-144.28 -110.811)"/><path stroke-miterlimit="10" d="M169.96 236.948c-.219 8.953-.319 19.73-4.448 27.873-2.52 4.975-4.42 3.443-10.69 2.477-8.865-1.099-9.875-5.376-11.193-9.662" style="fill:none;stroke:#000;stroke-width:2;stroke-linecap:round;stroke-miterlimit:10" transform="translate(.659 -52.338)"/><path d="m324.377 216.31-.132-1.186c-.095-.786-.19-1.582-.312-2.35-.354-1.364-.69-2.737-1.082-4.07l-1.442-3.814c-4.407-9.746-10.65-17.557-17.082-24.552-.267-.288-.542-.55-.812-.834-6.24-6.605-12.798-12.4-19.367-17.582-8.045-6.346-16.083-11.778-23.88-16.518-25.71-16.909-55.275-30.012-80.155-32.069a99.407 99.407 0 0 0-8.158-.325c-23.259 0-52.052 7.377-79.198 20.04-.24.1-.474.193-.714.296-7.259 3.16-14.82 6.74-22.343 11.181-7.55 4.388-15.155 9.494-22.407 15.677-7.2 6.198-14.218 13.457-19.232 22.787l-1.69 3.625-1.345 3.854c-.087.347-.157.703-.239 1.053a327.973 327.973 0 0 0-.68 3.007c-.017.033-.092.646-.067.497l-.018.235-.034.471-.069.942-.139 1.89c.066 1.487.197 2.993.333 4.481l.897 4.092c.398 1.323.877 2.615 1.32 3.921.46 1.3 1.1 2.501 1.646 3.757 3.168 6.461 7.34 12.262 12.024 17.661 27.946 33.937 87.266 68.354 124.648 71.836 2.106.196 4.348.296 6.662.296 1.72 0 3.482-.053 5.278-.154 2.252-.088 4.495-.199 6.722-.459 2.924-.227 5.795-.71 8.688-1.109 2.855-.54 5.742-.982 8.562-1.654 5.683-1.204 11.241-2.798 16.768-4.436 5.481-1.762 10.922-3.612 16.237-5.713 10.664-4.115 20.96-8.896 30.857-14.16 9.901-5.26 19.421-11.002 28.318-17.443 4.458-3.2 8.771-6.584 12.801-10.27 4.06-3.645 7.852-7.608 11.196-12.026 3.28-4.428 6.317-9.37 7.412-15.48l.21-1.128c.05-.755.016-.346.03-.575l.003-.237.011-.473.04-1.887c.028-.277-.027-.702-.066-1.095zm-8.204 2.726-.02.474-.005.194-.153.668c-.686 3.898-2.98 8.05-5.854 11.866-2.89 3.84-6.345 7.497-10.139 10.91-3.78 3.42-7.763 6.77-12.002 9.89-8.417 6.32-17.569 12.061-27.123 17.348-9.548 5.306-19.547 10.102-29.854 14.362-10.305 4.264-20.92 8.037-31.81 10.86-2.71.773-5.462 1.322-8.202 1.973-2.758.504-5.515 1.102-8.298 1.443-2.757.452-5.539.66-8.3.89l-.272.011-.532.021a85.04 85.04 0 0 1-2.3.033c-2.172 0-4.269-.093-6.233-.275-35.19-3.279-92.852-36.565-120.276-68.73-.219-.27-.429-.542-.645-.813a106.553 106.553 0 0 1-2.99-3.92c-3.199-4.41-5.964-8.994-8.017-13.762-.428-1.14-.96-2.25-1.304-3.396-.319-1.149-.687-2.286-.976-3.424-.196-1.142-.389-2.28-.583-3.417a50.821 50.821 0 0 0-.146-3.11l.354-3.498.827-3.248 1.198-3.167 1.528-3.058c2.226-3.999 4.985-7.724 8-11.178 3.055-3.433 6.376-6.574 9.734-9.584 1.696-1.486 3.433-2.91 5.158-4.313 1.783-1.34 3.483-2.75 5.29-4 3.547-2.579 7.08-5.068 10.668-7.32a250.337 250.337 0 0 1 25.831-14.436c23.938-10.639 50.44-17.68 73.227-17.68 2.676 0 5.293.104 7.775.31 23.222 1.92 50.678 13.777 75.01 29.325a263.841 263.841 0 0 1 6.21 4.363c6.28 4.58 12.63 9.717 19.033 15.28 3.202 2.785 6.353 5.751 9.505 8.812 1.592 1.516 3.106 3.13 4.686 4.708a373.29 373.29 0 0 1 3.235 3.535c.438.481.883.944 1.313 1.434 1.09 1.26 2.17 2.552 3.244 3.858 4.71 5.746 9.11 11.95 12.025 18.754l1.138 3.142c.263 1.048.53 2.1.795 3.155l.155 1.371.1.681c.034.23.094.426.06.776l-.065 1.882z" style="fill:url(#h)" transform="translate(.659 -52.338)"/><path d="M342.77 140.266c-1.057-2.493-2.913-4.348-4.763-5.639-1.867-1.337-3.828-2.158-5.74-2.809-1.923-.684-3.825-1.1-5.72-1.49-3.79-.726-7.527-1.049-11.239-1.232-3.715-.192-7.4-.154-11.067-.002-7.329.314-14.597.914-21.8 1.912-.492.065-.98.15-1.47.216-14.748 1.425-28.484 3.624-35.899 4.91a255.74 255.74 0 0 1 6.251 3.651c7.533-1.222 18.134-2.77 29.373-3.879.728-.042 1.456-.105 2.184-.143 7.167-.337 14.32-.64 21.425-.498 3.551.072 7.084.231 10.575.505 3.484.292 6.946.724 10.226 1.475 1.62.397 3.242.812 4.702 1.4.767.253 1.418.611 2.115.917.612.373 1.288.697 1.787 1.103 2.19 1.65 2.826 3.083 2.28 5.614-.063.6-.393 1.277-.586 1.928-.33.667-.602 1.344-.996 2.018-.766 1.352-1.687 2.696-2.698 4.01-2.025 2.632-4.437 5.131-6.89 7.585-2.472 2.45-5.119 4.784-7.814 7.07a218.867 218.867 0 0 1-8.308 6.662 861.566 861.566 0 0 1-5.183 3.954c.27.284.545.547.812.834a153.733 153.733 0 0 1 4.046 4.581 227.039 227.039 0 0 0 4.804-3.462c2.928-2.19 5.821-4.44 8.658-6.785 2.838-2.348 5.64-4.757 8.326-7.358 2.694-2.593 5.313-5.304 7.642-8.438 1.171-1.557 2.281-3.204 3.271-5.005.503-.89.92-1.89 1.354-2.854.345-1.069.771-2.054.95-3.253.47-2.253.491-5.007-.609-7.498z" style="fill:url(#i)" transform="translate(.659 -52.338)"/><path d="M49.278 158.56c-2.18-2.12-4.315-4.28-6.442-6.435a219.999 219.999 0 0 1-7.287-7.716c-2.35-2.617-4.67-5.253-6.78-7.985-2.1-2.73-4.146-5.5-5.777-8.326-.818-1.41-1.536-2.832-2.1-4.226-.296-.698-.464-1.37-.697-2.044-.096-.627-.326-1.31-.307-1.853-.096-1.167.034-2.03.423-2.66.366-.653 1.083-1.313 2.174-1.898.501-.312 1.185-.535 1.803-.814.706-.206 1.368-.468 2.141-.619 1.477-.384 3.111-.584 4.743-.768 3.301-.318 6.762-.302 10.234-.145 3.475.18 6.987.47 10.507.844 7.045.752 14.087 1.97 21.152 3.187 3.528.63 7.053 1.311 10.574 2.036l.22.045a516.563 516.563 0 0 1 24.87 7.102 236.442 236.442 0 0 1 7.117-2.585c-2.199-.734-15.07-4.985-30.97-9.079l-.07-.022a412.239 412.239 0 0 0-10.464-3.082c-3.505-.988-7.032-1.924-10.6-2.715a236.458 236.458 0 0 0-10.774-2.212c-3.623-.66-7.285-1.208-11.01-1.52-3.727-.325-7.5-.515-11.402-.306-1.958.133-3.927.288-5.97.715-2.024.398-4.138.955-6.255 2.078-2.087 1.075-4.297 2.753-5.765 5.237-1.514 2.478-1.876 5.38-1.702 7.775.023 1.274.32 2.337.528 3.487.31 1.043.603 2.124.99 3.096.76 1.964 1.657 3.777 2.624 5.501 1.918 3.466 4.168 6.527 6.504 9.481a104.953 104.953 0 0 0 3.586 4.314c1.206 1.425 2.456 2.784 3.718 4.137a230.069 230.069 0 0 0 7.748 7.862 242.716 242.716 0 0 0 6.263 5.804 123.786 123.786 0 0 1 4.466-4.044c.66-.562 1.323-1.104 1.987-1.647z" style="fill:url(#j)" transform="translate(.659 -52.338)"/></svg>