<?xml version="1.0" encoding="UTF-8" standalone="no"?>
<!-- Created with Inkscape (http://www.inkscape.org/) -->

<svg
   width="210mm"
   height="210mm"
   viewBox="0 0 210 210"
   version="1.1"
   id="svg1"
   inkscape:version="1.3.2 (091e20ef0f, 2023-11-25, custom)"
   sodipodi:docname="logo.svg"
   xml:space="preserve"
   inkscape:export-filename="logo.png"
   inkscape:export-xdpi="7.7399998"
   inkscape:export-ydpi="7.7399998"
   xmlns:inkscape="http://www.inkscape.org/namespaces/inkscape"
   xmlns:sodipodi="http://sodipodi.sourceforge.net/DTD/sodipodi-0.dtd"
   xmlns="http://www.w3.org/2000/svg"
   xmlns:svg="http://www.w3.org/2000/svg"><sodipodi:namedview
     id="namedview1"
     pagecolor="#ffffff"
     bordercolor="#000000"
     borderopacity="0.25"
     inkscape:showpageshadow="2"
     inkscape:pageopacity="0.0"
     inkscape:pagecheckerboard="0"
     inkscape:deskcolor="#d1d1d1"
     inkscape:document-units="mm"
     inkscape:zoom="0.30862805"
     inkscape:cx="212.22957"
     inkscape:cy="424.45915"
     inkscape:window-width="1492"
     inkscape:window-height="836"
     inkscape:window-x="0"
     inkscape:window-y="0"
     inkscape:window-maximized="1"
     inkscape:current-layer="g1" /><defs
     id="defs1" /><g
     inkscape:label="Layer 1"
     inkscape:groupmode="layer"
     id="layer1"><g
       id="g3"
       transform="matrix(1.3796236,0,0,1.3796236,250.85746,31.736196)"
       style="display:inline"><path
         style="fill:#eb7605"
         d="m -79.006048,68.009934 c -0.421205,-0.255372 -1.777858,-1.007549 -3.014785,-1.671505 -1.236927,-0.663956 -4.21349,-2.27238 -6.614584,-3.574276 -5.645296,-3.060933 -6.990866,-3.788422 -11.773953,-6.365649 -2.18282,-1.176144 -5.69516,-3.07023 -7.80521,-4.209081 l -3.83646,-2.070639 -0.0679,-19.245652 c -0.0373,-10.585109 0.006,-19.245653 0.0974,-19.245653 0.17963,0 1.83092,0.827277 15.97779,8.00469 14.683924,7.449888 18.109244,9.236953 18.318344,9.557083 0.106913,0.163682 0.19621,8.908373 0.198438,19.432648 0.0044,20.989915 0.05566,20.318533 -1.47908,19.388034 z"
         id="path6" /><path
         style="fill:#bc1788"
         d="m -69.85,48.761582 v -19.80793 l 8.003646,-4.0244 c 4.402005,-2.21342 12.105791,-6.111809 17.119523,-8.663086 5.013733,-2.551278 9.210686,-4.638687 9.326563,-4.638687 0.115876,0 0.210685,8.621471 0.210685,19.158824 v 19.158823 l -5.225521,2.839829 C -57.020835,61.809402 -68.878862,68.197298 -69.386979,68.392047 -69.825409,68.560086 -69.85,67.517494 -69.85,48.761582 Z"
         id="path5" /><path
         style="fill:#8bb611"
         d="m -77.522917,19.391472 c -2.255573,-1.099094 -5.529791,-2.687619 -7.276041,-3.530055 -1.74625,-0.842437 -6.449219,-3.128866 -10.451042,-5.080954 -4.001823,-1.9520881 -8.97268,-4.3682587 -11.04635,-5.369268 -2.07368,-1.0010093 -3.77032,-1.8987666 -3.77032,-1.9950162 0,-0.2243509 0.15587,-0.291074 11.773962,-5.0402657 5.384271,-2.2009578 11.515989,-4.7087251 13.626041,-5.5728164 10.952467,-4.4851647 11.158115,-4.5589477 11.882393,-4.2632357 0.376924,0.153893 2.054534,0.883602 3.728024,1.6215758 6.51963,2.875021 12.816498,3.8462446 17.561514,2.7086731 5.213429,-1.249869 9.474348,-4.7062209 12.053036,-9.7771249 0.321676,-0.632565 0.638642,-1.096342 0.704369,-1.030615 0.176003,0.176003 -2.07765,6.85076 -3.192969,9.4567757 -4.234288,9.8936906 -10.922771,18.2938728 -18.735785,23.5305973 -1.8697,1.253179 -10.948212,5.855477 -12.226623,6.198214 -0.336206,0.09014 -2.024612,-0.586832 -4.630209,-1.856485 z"
         id="path4" /></g><g
       style="fill:#000000;fill-opacity:1;stroke:#ffffff;stroke-opacity:1;stroke-width:87.91620373;stroke-dasharray:none;paint-order:markers stroke fill"
       id="g1"
       transform="matrix(0.08288461,0.07789732,-0.07789732,0.08288461,47.345005,168.83908)"><path
         d="m 234.11617,-336.99104 -81.61763,-88.26416 c 40.39388,-38.24338 87.3953,-68.13635 141.00424,-89.6789 53.60894,-21.54255 111.06862,-31.47549 172.37903,-29.79882 61.31041,1.67666 118.13678,14.90173 170.47912,39.67519 52.34233,24.77347 97.62608,57.69036 135.85123,98.75066 l -86.26491,81.67231 c -28.52048,-30.12425 -61.87903,-54.04511 -100.07563,-71.76258 -38.19661,-17.71747 -79.28668,-27.17761 -123.27024,-28.38043 -43.98355,-1.20283 -85.52924,5.99746 -124.63708,21.60088 -39.10783,15.60341 -73.72388,37.66536 -103.84813,66.18585 z M 68.826983,-511.57478 -12.845325,-597.83969 c 63.023524,-60.96659 136.002915,-107.98913 218.938175,-141.06763 82.93526,-33.0785 171.71853,-48.32381 266.34982,-45.73591 94.63129,2.58789 182.44866,22.66272 263.45211,60.22447 81.00345,37.56175 151.30383,88.50259 210.90112,152.8225 l -86.26491,81.67231 c -49.91085,-52.71744 -108.29058,-94.49565 -175.13919,-125.33461 -66.84861,-30.83896 -138.92513,-47.31546 -216.22956,-49.42952 -77.30443,-2.11405 -150.17372,10.3986 -218.60787,37.53797 -68.43415,27.13936 -129.00995,65.66447 -181.727387,115.57533 z"
         id="path1"
         style="fill:#000000;fill-opacity:1;stroke:#ffffff;stroke-width:87.9162;stroke-dasharray:none;stroke-opacity:1;paint-order:markers stroke fill"
         sodipodi:nodetypes="ccsssccssscccsssccsssc" /></g><text
       xml:space="preserve"
       style="font-size:8.93036px;fill:#ffffff;stroke:#ffffff;stroke-width:17.4509;stroke-linecap:round;stroke-linejoin:round;stroke-dasharray:none;stroke-opacity:1;paint-order:markers stroke fill"
       x="-6.3253646"
       y="198.93547"
       id="text1"
       sodipodi:insensitive="true"><tspan
         sodipodi:role="line"
         id="tspan1"
         style="font-style:normal;font-variant:normal;font-weight:normal;font-stretch:normal;font-size:203.875px;font-family:'URW Gothic';-inkscape-font-specification:'URW Gothic, Normal';font-variant-ligatures:normal;font-variant-caps:normal;font-variant-numeric:normal;font-variant-east-asian:normal;fill:#000000;fill-opacity:1;stroke:#ffffff;stroke-width:17.4509;stroke-linecap:round;stroke-linejoin:round;stroke-dasharray:none;stroke-opacity:1;paint-order:markers stroke fill"
         x="-6.3253646"
         y="198.93547">R</tspan></text></g></svg>
