<?xml version="1.0" encoding="UTF-8" standalone="no"?>
<!-- Created with Inkscape (http://www.inkscape.org/) -->

<svg
   width="67.014984mm"
   height="41.452061mm"
   viewBox="0 0 67.014984 41.452061"
   version="1.1"
   id="svg1"
   sodipodi:docname="ga-logo.svg"
   inkscape:version="1.3 (0e150ed6c4, 2023-07-21)"
   inkscape:export-filename="ga-logo-cookie.svg"
   inkscape:export-xdpi="96"
   inkscape:export-ydpi="96"
   xml:space="preserve"
   xmlns:inkscape="http://www.inkscape.org/namespaces/inkscape"
   xmlns:sodipodi="http://sodipodi.sourceforge.net/DTD/sodipodi-0.dtd"
   xmlns="http://www.w3.org/2000/svg"
   xmlns:svg="http://www.w3.org/2000/svg"><sodipodi:namedview
     id="namedview1"
     pagecolor="#ffffff"
     bordercolor="#000000"
     borderopacity="0.25"
     inkscape:showpageshadow="2"
     inkscape:pageopacity="0.0"
     inkscape:pagecheckerboard="0"
     inkscape:deskcolor="#d1d1d1"
     inkscape:document-units="mm"
     inkscape:zoom="1.4805976"
     inkscape:cx="57.409252"
     inkscape:cy="116.50701"
     inkscape:window-width="1920"
     inkscape:window-height="1009"
     inkscape:window-x="-8"
     inkscape:window-y="-8"
     inkscape:window-maximized="1"
     inkscape:current-layer="layer1" /><defs
     id="defs1" /><g
     inkscape:label="Laag 1"
     inkscape:groupmode="layer"
     id="layer1"
     transform="translate(-63.72639,-66.19671)"><text
       xml:space="preserve"
       style="font-style:normal;font-variant:normal;font-weight:normal;font-stretch:normal;font-size:24.8104px;font-family:'Franklin Gothic Book';-inkscape-font-specification:'Franklin Gothic Book, ';fill:#bb0d0d;fill-opacity:1;fill-rule:evenodd;stroke:#5f5f5f;stroke-width:0.465927;stroke-opacity:1"
       x="56.719883"
       y="90.38311"
       id="text1"
       transform="scale(1.1029015,0.90669928)"><tspan
         sodipodi:role="line"
         style="font-style:normal;font-variant:normal;font-weight:bold;font-stretch:normal;font-family:Rockwell;-inkscape-font-specification:'Rockwell Bold';fill:#bb0d0d;fill-opacity:1;stroke:#5f5f5f;stroke-width:0.465928;stroke-opacity:1"
         x="56.719883"
         y="90.38311"
         id="tspan2">G</tspan></text><text
       xml:space="preserve"
       style="font-style:normal;font-variant:normal;font-weight:normal;font-stretch:normal;font-size:24.9579px;font-family:'Franklin Gothic Book';-inkscape-font-specification:'Franklin Gothic Book, ';fill:#bb0d0d;fill-opacity:1;fill-rule:evenodd;stroke:#5f5f5f;stroke-width:0.468696;stroke-opacity:1"
       x="102.41734"
       y="89.776703"
       id="text1-8"
       transform="scale(1.0961903,0.91225036)"><tspan
         sodipodi:role="line"
         style="font-style:normal;font-variant:normal;font-weight:bold;font-stretch:normal;font-family:Rockwell;-inkscape-font-specification:'Rockwell Bold';fill:#bb0d0d;fill-opacity:1;stroke:#5f5f5f;stroke-width:0.468697;stroke-opacity:1"
         x="102.41734"
         y="89.776703"
         id="tspan2-3">d</tspan></text><text
       xml:space="preserve"
       style="font-style:normal;font-variant:normal;font-weight:normal;font-stretch:normal;font-size:17.6582px;font-family:'Franklin Gothic Book';-inkscape-font-specification:'Franklin Gothic Book, ';fill:#5f5f5f;fill-opacity:1;fill-rule:evenodd;stroke:#ee7320;stroke-width:0.331609"
       x="67.302872"
       y="98.199722"
       id="text3"
       transform="scale(1.034311,0.9668272)"><tspan
         sodipodi:role="line"
         id="tspan3"
         style="font-style:normal;font-variant:normal;font-weight:bold;font-stretch:normal;font-family:Rockwell;-inkscape-font-specification:'Rockwell Bold';fill:#5f5f5f;fill-opacity:1;stroke:#5e5e5e;stroke-width:0.331612;stroke-opacity:1"
         x="67.302872"
         y="98.199722">Advice</tspan></text><text
       xml:space="preserve"
       style="font-style:normal;font-variant:normal;font-weight:normal;font-stretch:normal;font-size:15.6825px;font-family:'Franklin Gothic Book';-inkscape-font-specification:'Franklin Gothic Book, ';fill:#eb6b13;fill-rule:evenodd;stroke:#ee7320;stroke-width:0.294509"
       x="100.18244"
       y="119.84184"
       id="text4"
       transform="scale(1.1147921,0.89702824)"><tspan
         sodipodi:role="line"
         id="tspan4"
         style="font-style:normal;font-variant:normal;font-weight:bold;font-stretch:normal;font-family:Rockwell;-inkscape-font-specification:'Rockwell Bold';fill:#494949;fill-opacity:1;stroke:#000000;stroke-width:0.29451;stroke-opacity:1"
         x="100.18244"
         y="119.84184">IT</tspan></text><path
       style="fill:#2a2a2a;fill-opacity:1;fill-rule:evenodd;stroke:#5f5f5f;stroke-width:0.264999;stroke-opacity:1"
       id="path12"
       d="m 69.067066,100.57788 c 0.422466,-0.0721 0.852165,-0.0928 1.279401,-0.11801 0.989603,-0.0532 1.981055,-0.0641 2.971834,-0.0779 1.38398,-0.0181 2.768055,-0.0258 4.152128,-0.0325 1.564764,-0.005 3.129528,-0.008 4.694301,-0.007 1.579877,0.004 3.159762,0.006 4.739637,0.0109 1.548154,0.007 3.096249,0.009 4.644387,-0.001 1.538372,-0.0119 3.076753,-0.021 4.615053,-0.0402 1.422612,-0.018 2.845263,-0.0326 4.267873,-0.0507 1.32667,-0.0264 2.65337,-0.0311 3.98022,-0.0239 1.29504,0.007 2.59003,0.0209 3.88499,0.0368 0.82312,0.0104 0.41339,0.005 1.2292,0.0156 0,0 0.20764,-2.647576 0.20764,-2.647576 v 0 c -0.81626,-0.0021 -0.4063,-0.0011 -1.22987,-0.0033 -1.29712,-0.0044 -2.59422,-0.01243 -3.89131,-0.02199 -1.33934,-0.0056 -2.67875,0.0021 -4.01777,0.03392 -1.422734,0.02959 -2.845335,0.06494 -4.268087,0.09361 -1.533451,0.02779 -3.067019,0.04228 -4.600697,0.05092 -1.544029,0.0094 -3.088068,0.007 -4.632119,0.0071 -1.579954,7.94e-4 -3.159908,-0.0013 -4.739859,-0.0024 -1.563804,-0.0033 -3.127584,-0.01135 -4.691351,-0.02275 -1.381704,-0.01222 -2.763406,-0.02593 -4.144944,-0.05144 -1.000289,-0.01905 -2.000385,-0.0462 -3.000631,-0.06713 -0.469255,-0.0094 -0.9383,-0.02643 -1.407594,-0.03284 z" /><g
       style="fill:none;stroke:#5f5f5f;stroke-opacity:1"
       id="g3"
       transform="matrix(0.56706093,-0.31620926,0.32757979,0.54800336,80.920724,73.28358)"><path
         d="M 9,16 H 9.01 M 12,11 h 0.01 M 7,10 H 7.01 M 15,16 h 0.01 M 21,12 c 0,4.9706 -4.0294,9 -9,9 -4.97056,0 -9,-4.0294 -9,-9 0,-4.97056 4.02944,-9 9,-9 0,2.76142 1.7909,5 4,5 0,2.2091 2.2386,4 5,4 z"
         stroke="#000000"
         stroke-width="2"
         stroke-linecap="round"
         stroke-linejoin="round"
         id="path1-0"
         style="stroke:#5f5f5f;stroke-opacity:1" /></g><g
       style="fill:none;fill-opacity:0;stroke:#5f5f5f;stroke-opacity:1"
       id="g4"
       transform="matrix(0.67062292,0,0,0.62778141,97.686558,68.759374)"><g
         id="Vector"
         style="fill:none;fill-opacity:0;stroke:#5f5f5f;stroke-opacity:1"><path
           d="M 12.1521,4.08723 C 12.1513,3.71959 12.1001,3.3538 12,3 c 4.9683,0.00545 8.9944,4.03979 9,9 0.0161,4.9625 -4.0295,8.9835 -9,8.9997 C 7.02946,21.0158 3.01615,16.963 3,12.0005 4.11168,12.2363 5.27038,11.9981 6.1499,11.2795 7.0562,10.5452 7.5789,9.43935 7.5702,8.27407 7.56959,8.01195 7.5461,7.75072 7.5,7.49268 8.51784,7.89624 9.67043,7.76409 10.5708,7.14162 11.5696,6.44537 12.161,5.3034 12.1521,4.08723 Z"
           stroke="#000000"
           stroke-width="2"
           stroke-linecap="round"
           stroke-linejoin="round"
           id="path1-6"
           style="fill:none;fill-opacity:0;stroke:#5f5f5f;stroke-opacity:1" /><path
           d="M 3.00195,7.002 V 7 H 3 v 0.00195 z"
           stroke="#000000"
           stroke-width="2"
           stroke-linecap="round"
           stroke-linejoin="round"
           id="path2-7"
           style="fill:none;fill-opacity:0;stroke:#5f5f5f;stroke-opacity:1" /><path
           d="M 8.00195,3.002 V 3 H 8 v 0.00195 z"
           stroke="#000000"
           stroke-width="2"
           stroke-linecap="round"
           stroke-linejoin="round"
           id="path3"
           style="fill:none;fill-opacity:0;stroke:#5f5f5f;stroke-opacity:1" /><path
           d="M 4.00195,3.002 V 3 H 4 v 0.00195 z"
           stroke="#000000"
           stroke-width="2"
           stroke-linecap="round"
           stroke-linejoin="round"
           id="path4"
           style="fill:none;fill-opacity:0;stroke:#5f5f5f;stroke-opacity:1" /><path
           d="M 10.002,17.002 V 17 H 10 v 0.002 z"
           stroke="#000000"
           stroke-width="2"
           stroke-linecap="round"
           stroke-linejoin="round"
           id="path5"
           style="fill:none;fill-opacity:0;stroke:#5f5f5f;stroke-opacity:1" /><path
           d="M 15.002,15.002 V 15 H 15 v 0.002 z"
           stroke="#000000"
           stroke-width="2"
           stroke-linecap="round"
           stroke-linejoin="round"
           id="path6"
           style="fill:none;fill-opacity:0;stroke:#5f5f5f;stroke-opacity:1" /><path
           d="M 11.002,12.002 V 12 H 11 v 0.002 z"
           stroke="#000000"
           stroke-width="2"
           stroke-linecap="round"
           stroke-linejoin="round"
           id="path7"
           style="fill:none;fill-opacity:0;stroke:#5f5f5f;stroke-opacity:1" /><path
           d="M 16.002,10.002 V 10 H 16 v 0.002 z"
           stroke="#000000"
           stroke-width="2"
           stroke-linecap="round"
           stroke-linejoin="round"
           id="path8"
           style="fill:none;fill-opacity:0;stroke:#5f5f5f;stroke-opacity:1" /><path
           d="M 3.00195,7.002 V 7 H 3 v 0.00195 z"
           stroke="#000000"
           stroke-width="2"
           stroke-linecap="round"
           stroke-linejoin="round"
           id="path9"
           style="fill:none;fill-opacity:0;stroke:#5f5f5f;stroke-opacity:1" /><path
           d="M 8.00195,3.002 V 3 H 8 v 0.00195 z"
           stroke="#000000"
           stroke-width="2"
           stroke-linecap="round"
           stroke-linejoin="round"
           id="path10"
           style="fill:none;fill-opacity:0;stroke:#5f5f5f;stroke-opacity:1" /><path
           d="M 4.00195,3.002 V 3 H 4 v 0.00195 z"
           stroke="#000000"
           stroke-width="2"
           stroke-linecap="round"
           stroke-linejoin="round"
           id="path11"
           style="fill:none;fill-opacity:0;stroke:#5f5f5f;stroke-opacity:1" /></g></g></g></svg>
